<svg version="1.1" id="Layer_1" xmlns="http://www.w3.org/2000/svg" xmlns:xlink="http://www.w3.org/1999/xlink" x="0px" y="0px"
	 width="100%" viewBox="0 0 225 225" enable-background="new 0 0 225 225" xml:space="preserve">
<path fill="#FFFFFF" opacity="1.000000" stroke="none" 
	d="
M226.000000,85.000000 
	C226.000000,132.333328 226.000000,179.166672 226.000000,226.000000 
	C151.000000,226.000000 76.000000,226.000000 1.000000,226.000000 
	C1.000000,151.000000 1.000000,76.000000 1.000000,1.000000 
	C76.000000,1.000000 151.000000,1.000000 226.000000,1.000000 
	C226.000000,28.833334 226.000000,56.666668 226.000000,85.000000 
M175.260376,109.831299 
	C175.344498,109.738762 175.516647,109.591812 175.498505,109.562485 
	C175.374573,109.361961 175.210678,109.186142 174.898178,108.606644 
	C174.898178,108.606644 174.902832,108.179260 174.968765,107.268456 
	C174.290421,104.491394 176.826859,100.843636 172.491440,99.016418 
	C170.786850,98.297997 169.386719,96.857178 167.847946,95.745323 
	C168.052673,95.423119 168.257416,95.100914 168.462143,94.778709 
	C167.109131,95.016342 165.756104,95.253975 165.481384,95.302223 
	C163.917725,93.100357 162.833389,91.573463 161.749069,90.046562 
	C160.818192,91.073586 159.887314,92.100601 158.347305,92.826187 
	C156.857376,90.626625 155.367462,88.427063 154.301529,85.623932 
	C155.226196,84.855461 156.150864,84.086998 156.156647,84.082184 
	C153.782761,81.595535 151.415100,79.998573 150.363480,77.778259 
	C149.190933,75.302696 149.214691,72.260506 148.539093,68.460083 
	C148.921127,67.906326 150.114349,66.123360 151.363876,64.380775 
	C152.578796,62.686497 153.882019,59.578926 155.093674,59.604397 
	C161.747467,59.744263 158.508881,56.746895 157.423050,53.614952 
	C159.674927,51.094574 161.926819,48.574196 164.764252,45.768982 
	C168.914291,41.617142 173.064346,37.465302 177.787155,33.060955 
	C177.842484,32.796864 177.930023,32.533134 177.933014,32.268452 
	C177.933884,32.191540 177.692810,32.043133 177.562759,32.043259 
	C164.080032,32.056194 150.597290,32.073143 137.114777,32.138874 
	C136.722549,32.140785 136.332870,32.665440 135.910980,32.954624 
	C135.910980,32.954624 135.876831,32.942287 135.199875,33.011101 
	C130.848434,37.037182 126.497009,41.063267 121.486496,44.825912 
	C119.233559,44.825912 116.980614,44.825912 114.727676,44.825912 
	C115.122238,44.427731 115.516792,44.029552 115.911354,43.631371 
	C113.852669,40.849213 112.182449,37.579090 109.566696,35.496685 
	C108.312958,34.498577 105.269638,35.748394 102.550873,35.809231 
	C102.371651,35.526276 102.192429,35.243320 102.117096,34.301937 
	C103.063454,33.595566 104.009804,32.889198 105.115303,32.064041 
	C103.300377,31.437099 101.300125,31.148048 101.253418,30.668671 
	C100.705109,25.040653 96.175850,26.206158 93.019569,26.112793 
	C82.936577,25.814522 72.829712,26.259441 62.751610,25.887573 
	C58.046799,25.713972 55.998631,27.330746 55.677471,32.179043 
	C55.437901,32.368027 55.293137,32.613003 54.598297,33.158852 
	C53.857136,32.549377 52.490402,31.924866 52.504620,31.333549 
	C52.534508,30.090219 53.289238,28.864313 53.746452,27.631256 
	C53.353340,27.411470 52.960228,27.191683 52.567120,26.971897 
	C51.410358,28.427181 49.025043,30.234083 49.322437,31.273186 
	C50.294956,34.671196 52.244457,37.789585 53.607231,40.582932 
	C55.765713,40.780079 58.406925,40.513660 58.627544,41.123268 
	C60.140514,45.303852 63.463959,43.676521 66.760246,44.223030 
	C68.086075,45.274712 69.411896,46.326389 70.858353,47.751183 
	C70.858353,47.751183 71.158516,48.003510 71.239891,48.530384 
	C71.825546,48.892258 72.411194,49.254135 73.460060,50.084496 
	C74.223488,51.101543 74.986908,52.118591 76.075455,53.728477 
	C77.977631,55.254398 79.879814,56.780315 81.699471,58.255211 
	C81.699471,58.255211 81.681351,58.350525 81.850868,58.984592 
	C86.239326,63.673061 90.627785,68.361534 94.445656,73.379494 
	C89.855713,78.204842 85.265762,83.030182 80.108192,88.030663 
	C79.368790,88.929855 78.629395,89.829041 77.203545,90.890091 
	C73.788383,94.554169 70.373215,98.218246 66.343666,102.187073 
	C63.871521,104.359123 61.399380,106.531174 58.559845,109.026024 
	C60.927975,111.052292 62.630287,112.508850 64.636421,114.519119 
	C69.951843,119.722572 75.267273,124.926018 80.883003,130.743561 
	C82.353600,132.458252 83.824188,134.172943 84.584457,136.013885 
	C84.843727,138.291779 85.137054,140.566437 85.352959,142.848434 
	C85.582344,145.272919 86.812782,148.511902 85.714348,149.973495 
	C82.987038,153.602432 79.263588,156.514999 75.788673,159.541260 
	C71.859207,162.963379 64.197815,163.074509 65.538803,171.228195 
	C65.562439,171.371918 63.357121,171.917282 62.176613,172.214706 
	C60.852474,172.548309 58.349705,172.806412 58.348000,173.108597 
	C58.311619,179.549255 54.059284,182.744949 48.848179,185.919983 
	C53.153442,187.708496 57.363800,189.400085 61.704865,189.861206 
	C67.136719,190.438217 72.677582,189.924896 78.168304,190.035400 
	C81.612373,190.104721 85.047997,190.536942 88.492592,190.655182 
	C91.422058,190.755737 94.373344,190.808243 97.287285,190.558655 
	C99.115395,190.402069 101.563278,190.230865 102.578224,189.062759 
	C107.456375,183.448547 111.941345,177.492691 116.049217,172.310013 
	C119.269653,173.071075 121.178978,173.522293 123.666878,174.268585 
	C125.179108,175.493088 126.691338,176.717606 128.499969,178.513748 
	C130.668915,180.661667 132.837860,182.809586 135.562317,185.600754 
	C149.861420,185.600754 164.160522,185.600754 179.800903,185.600754 
	C178.055725,184.591248 177.531006,184.287720 177.036575,183.796143 
	C177.036575,183.796143 177.069016,183.608475 177.037247,182.828430 
	C176.713577,181.380127 176.269958,179.946609 176.089493,178.480667 
	C175.613724,174.615845 175.450623,170.647430 169.917480,170.712021 
	C169.318451,170.719025 168.267578,169.409973 168.168945,168.618790 
	C167.657913,164.519608 165.747467,162.935822 162.678207,164.400543 
	C159.667160,161.617752 157.067093,159.326019 154.605026,156.894562 
	C153.283676,155.589615 152.145203,154.085464 151.022400,152.597122 
	C149.695923,150.838745 148.854019,148.368408 147.126892,147.333817 
	C143.947571,145.429337 144.694794,144.180496 146.803970,142.151794 
	C148.648071,140.378052 150.135681,138.233673 151.807007,136.221481 
	C154.128265,134.253464 156.568420,132.179001 159.015137,130.112335 
	C160.526443,128.835800 162.233093,127.732117 163.514069,126.257278 
	C164.879227,124.685486 165.846069,122.767723 167.768372,120.980713 
	C170.124924,120.002312 172.481476,119.023911 174.906799,118.016960 
	C174.906799,115.234856 174.906799,112.576576 174.966843,110.009247 
	C174.966843,110.009247 174.891739,109.923233 175.260376,109.831299 
z"/>
<path fill="#30D1FA" opacity="1.000000" stroke="none" 
	d="
M70.737724,47.378067 
	C69.411896,46.326389 68.086075,45.274712 66.334717,43.760040 
	C62.880322,39.956017 59.851467,36.614979 57.295425,33.174545 
	C71.571220,33.036427 85.374199,32.997711 99.440216,33.092041 
	C100.473236,33.803516 101.243217,34.381943 102.013206,34.960365 
	C102.192429,35.243320 102.371651,35.526276 102.899979,36.212830 
	C107.446777,41.084267 111.644470,45.552105 115.538849,50.067291 
	C114.822243,50.741566 114.408951,51.368492 113.727539,51.776497 
	C112.153206,50.266140 110.940872,48.858170 109.517876,47.711674 
	C107.574348,46.145790 105.470451,44.778942 103.018715,43.029514 
	C101.907349,48.588818 96.961975,48.443439 91.886871,47.995808 
	C85.826546,47.461277 79.771431,46.856785 73.703903,46.425674 
	C72.742592,46.357368 71.727791,47.041710 70.737724,47.378067 
z"/>
<path fill="#F5FAFA" opacity="1.000000" stroke="none" 
	d="
M123.088303,173.973511 
	C121.178978,173.522293 119.269653,173.071075 116.049217,172.310013 
	C111.941345,177.492691 107.456375,183.448547 102.578224,189.062759 
	C101.563278,190.230865 99.115395,190.402069 97.287285,190.558655 
	C94.373344,190.808243 91.422058,190.755737 88.492592,190.655182 
	C85.047997,190.536942 81.612373,190.104721 78.168304,190.035400 
	C72.677582,189.924896 67.136719,190.438217 61.704865,189.861206 
	C57.363800,189.400085 53.153442,187.708496 48.848179,185.919983 
	C54.059284,182.744949 58.311619,179.549255 58.348000,173.108597 
	C58.349705,172.806412 60.852474,172.548309 62.176613,172.214706 
	C63.357121,171.917282 65.562439,171.371918 65.538803,171.228195 
	C64.197815,163.074509 71.859207,162.963379 75.788673,159.541260 
	C79.263588,156.514999 82.987038,153.602432 85.714348,149.973495 
	C86.812782,148.511902 85.582344,145.272919 85.352959,142.848434 
	C85.137054,140.566437 84.843727,138.291779 85.228539,136.092743 
	C88.910095,139.108353 91.947578,142.045105 94.921448,145.309204 
	C93.241531,147.428894 91.625229,149.221222 89.705276,151.141022 
	C87.598167,153.179184 85.794693,155.089874 83.996109,157.000595 
	C84.000992,157.000610 84.000099,156.990723 83.693932,157.119781 
	C81.252090,159.495636 79.116409,161.742416 76.990524,163.995209 
	C77.000320,164.001221 76.993507,163.979507 76.738579,164.043549 
	C76.313522,164.401138 76.143394,164.694687 75.987106,164.994247 
	C76.000946,165.000275 75.983078,164.975769 75.682190,165.098663 
	C74.259476,166.485260 73.137642,167.748962 71.878693,169.314178 
	C69.527901,171.785339 67.314232,173.955002 64.835587,176.142136 
	C64.367432,176.435089 64.164253,176.710556 63.979610,176.995163 
	C63.998146,177.004318 63.983810,176.965591 63.683273,177.058167 
	C62.570393,178.089722 61.758049,179.028687 60.970955,179.984406 
	C60.996204,180.001144 60.970078,179.946518 60.692417,180.031219 
	C60.139091,180.601578 59.863430,181.087250 59.568810,181.609680 
	C59.549850,181.646423 59.468002,181.634537 59.165596,181.724457 
	C57.393829,182.549271 55.924469,183.284149 54.455105,184.019028 
	C54.975937,184.669586 55.496765,185.320145 56.017593,185.970703 
	C69.589256,185.970703 83.161194,186.002396 96.731895,185.887985 
	C97.504425,185.881470 98.266884,184.679062 99.168289,183.724335 
	C101.276680,181.756012 103.312462,180.163864 105.212212,178.423233 
	C109.257576,174.716660 113.232292,170.932983 117.352158,167.291260 
	C117.692825,167.609863 117.937294,167.787506 118.381432,168.252228 
	C120.070168,170.371094 121.579239,172.172302 123.088303,173.973511 
z"/>
<path fill="#ED81FA" opacity="1.000000" stroke="none" 
	d="
M164.178711,46.053818 
	C161.926819,48.574196 159.674927,51.094574 156.951263,53.986256 
	C153.389069,57.279236 150.298660,60.200912 146.946625,62.948181 
	C147.314545,61.498859 147.944107,60.223942 148.714798,58.663239 
	C141.632721,57.656002 134.659592,56.664257 126.957382,55.568825 
	C126.808662,55.642399 125.503403,56.288155 123.922813,56.841072 
	C123.452690,56.428455 123.257904,56.108677 122.996384,55.493149 
	C122.296188,54.798630 121.662735,54.399864 120.737633,53.845215 
	C119.419106,52.809204 118.392235,51.929085 117.470520,50.868805 
	C117.575691,50.688648 117.722527,50.298126 117.904366,50.001762 
	C119.439331,48.166718 120.792450,46.628036 122.145576,45.089352 
	C126.497009,41.063267 130.848434,37.037182 135.548615,33.327972 
	C134.662277,35.465858 133.427200,37.286865 132.140228,39.184395 
	C133.656601,39.531467 135.458496,39.422176 135.870804,40.126427 
	C137.916290,43.620304 141.148438,42.903980 144.234985,43.013298 
	C150.996887,43.252792 158.059387,41.584984 164.178711,46.053818 
z"/>
<path fill="#28B0F9" opacity="1.000000" stroke="none" 
	d="
M174.902832,108.179260 
	C174.902832,108.179260 174.898178,108.606644 174.884720,109.025177 
	C174.871262,109.443703 174.891739,109.923233 174.891739,109.923233 
	C174.891739,109.923233 174.966843,110.009247 174.645081,110.066978 
	C173.212128,110.997475 172.100937,111.870239 170.921738,112.374313 
	C168.216751,108.325401 164.589340,110.386864 161.333282,110.387215 
	C151.580261,110.388260 141.694611,113.310402 132.119781,109.056053 
	C131.934723,108.973824 131.407150,109.662468 131.019745,109.641312 
	C128.665054,106.529839 126.330009,103.768501 124.372414,100.999939 
	C125.387085,100.843773 126.360634,100.907753 126.610283,100.513435 
	C129.572189,95.835045 134.198059,96.072990 138.890259,95.943695 
	C145.648010,95.757484 152.509827,97.379105 159.370422,94.965775 
	C159.585754,94.992111 159.996948,95.130501 160.003464,95.464661 
	C160.721313,96.097679 161.432648,96.396530 162.476562,96.790977 
	C166.840378,100.650803 170.871597,104.415031 174.902832,108.179260 
z"/>
<path fill="#29B7FA" opacity="1.000000" stroke="none" 
	d="
M159.155090,94.939445 
	C152.509827,97.379105 145.648010,95.757484 138.890259,95.943695 
	C134.198059,96.072990 129.572189,95.835045 126.610283,100.513435 
	C126.360634,100.907753 125.387085,100.843773 124.102432,100.824409 
	C121.960419,99.126900 120.465828,97.597702 119.079872,95.788147 
	C120.044090,93.457779 120.399834,90.917824 121.843872,89.444626 
	C127.375946,83.800888 133.257599,78.499817 139.307343,73.208389 
	C144.363113,77.639786 149.120331,81.933640 153.877533,86.227501 
	C155.367462,88.427063 156.857376,90.626625 158.673492,93.280167 
	C159.051483,94.135918 159.103287,94.537682 159.155090,94.939445 
z"/>
<path fill="#2ACAFC" opacity="1.000000" stroke="none" 
	d="
M70.798035,47.564625 
	C71.727791,47.041710 72.742592,46.357368 73.703903,46.425674 
	C79.771431,46.856785 85.826546,47.461277 91.886871,47.995808 
	C96.961975,48.443439 101.907349,48.588818 103.018715,43.029514 
	C105.470451,44.778942 107.574348,46.145790 109.517876,47.711674 
	C110.940872,48.858170 112.153206,50.266140 113.744141,51.793480 
	C114.028862,52.029388 114.062019,52.063175 114.003067,52.424061 
	C110.959351,55.859718 107.974602,58.934490 104.620445,62.013142 
	C101.653557,64.059822 99.056084,66.102615 96.333397,68.243881 
	C92.591919,65.042831 88.861702,61.720524 84.951721,58.625282 
	C84.237000,58.059486 82.790207,58.418446 81.681351,58.350525 
	C81.681351,58.350525 81.699471,58.255211 81.703979,57.921753 
	C80.836967,55.430241 79.965462,53.272194 78.941216,50.735954 
	C77.711472,51.660778 76.730904,52.398209 75.750336,53.135643 
	C74.986908,52.118591 74.223488,51.101543 73.175362,49.581478 
	C72.313278,48.720142 71.735901,48.361824 71.158516,48.003510 
	C71.158516,48.003510 70.858353,47.751183 70.798035,47.564625 
z"/>
<path fill="#C452EC" opacity="1.000000" stroke="none" 
	d="
M80.582695,130.129471 
	C75.267273,124.926018 69.951843,119.722572 64.658722,114.254608 
	C64.681023,113.990105 65.032127,113.972221 65.429176,113.982002 
	C67.894630,113.816132 69.963036,113.640472 72.009415,113.466690 
	C72.902626,120.198448 74.650421,121.594566 81.153481,121.369179 
	C86.938904,121.168655 92.730835,121.160553 98.517235,120.981468 
	C101.267189,120.896362 104.607780,122.119843 105.656334,117.770439 
	C105.789162,117.219490 108.013763,117.172829 109.544617,117.023331 
	C110.900818,118.347603 111.981651,119.541084 113.161819,121.102356 
	C113.505058,122.930901 113.748962,124.391663 113.853317,125.966194 
	C113.713768,126.079971 113.373489,126.197830 113.002518,126.167023 
	C108.661774,129.944611 104.525810,133.051056 98.667740,128.959061 
	C98.503830,130.548477 98.384895,131.701752 98.244324,133.064865 
	C96.877197,132.826981 95.917526,132.502167 94.964500,132.520630 
	C90.014900,132.616501 86.098381,126.527000 80.582695,130.129471 
M108.589867,120.517754 
	C108.589867,120.517754 108.476799,120.585670 108.589867,120.517754 
z"/>
<path fill="#F385FC" opacity="1.000000" stroke="none" 
	d="
M164.471481,45.911400 
	C158.059387,41.584984 150.996887,43.252792 144.234985,43.013298 
	C141.148438,42.903980 137.916290,43.620304 135.870804,40.126427 
	C135.458496,39.422176 133.656601,39.531467 132.140228,39.184395 
	C133.427200,37.286865 134.662277,35.465858 135.887085,33.293568 
	C135.876831,32.942287 135.910980,32.954624 136.398895,32.973244 
	C150.329330,33.099064 163.771851,33.206264 177.214386,33.313461 
	C173.064346,37.465302 168.914291,41.617142 164.471481,45.911400 
z"/>
<path fill="#D360F1" opacity="1.000000" stroke="none" 
	d="
M66.958046,101.882317 
	C70.373215,98.218246 73.788383,94.554169 77.585304,91.198837 
	C78.669472,95.074249 80.587883,96.392761 84.413635,96.108246 
	C90.039650,95.689842 95.720428,96.048340 101.376839,95.984093 
	C105.196716,95.940697 108.170700,97.054214 109.145294,101.376328 
	C107.978210,102.772453 106.977806,103.886826 105.609962,105.005798 
	C100.602318,106.194679 96.033463,105.639313 91.308044,105.161850 
	C83.854691,104.408783 76.292686,104.767441 68.786095,104.439857 
	C68.140762,104.411697 67.565735,102.772919 66.958046,101.882317 
z"/>
<path fill="#F4F2F9" opacity="1.000000" stroke="none" 
	d="
M166.986816,121.001015 
	C165.846069,122.767723 164.879227,124.685486 163.514069,126.257278 
	C162.233093,127.732117 160.526443,128.835800 159.015137,130.112335 
	C156.568420,132.179001 154.128265,134.253464 151.807007,136.221481 
	C150.135681,138.233673 148.648071,140.378052 146.803970,142.151794 
	C144.694794,144.180496 143.947571,145.429337 147.126892,147.333817 
	C148.854019,148.368408 149.695923,150.838745 151.022400,152.597122 
	C152.145203,154.085464 153.283676,155.589615 154.605026,156.894562 
	C157.067093,159.326019 159.667160,161.617752 162.678207,164.400543 
	C165.747467,162.935822 167.657913,164.519608 168.168945,168.618790 
	C168.267578,169.409973 169.318451,170.719025 169.917480,170.712021 
	C175.450623,170.647430 175.613724,174.615845 176.089493,178.480667 
	C176.269958,179.946609 176.713577,181.380127 176.730850,183.206604 
	C173.992233,181.310852 171.560013,179.036926 168.946594,176.475784 
	C166.204071,173.697098 163.642731,171.205612 160.935074,168.427338 
	C157.253662,164.727112 153.718567,161.313660 150.040009,157.592407 
	C146.323227,153.487427 142.749893,149.690262 139.152466,145.682343 
	C139.128357,145.471603 139.115128,145.047577 139.388290,144.853302 
	C143.822876,140.217270 147.984299,135.775513 152.157166,131.303207 
	C152.168625,131.272644 152.141464,131.213303 152.426193,131.159454 
	C152.890244,130.766479 153.069580,130.427368 153.553650,129.965088 
	C157.540970,126.475838 161.223526,123.109741 165.066956,120.026077 
	C165.814133,120.539337 166.400482,120.770180 166.986816,121.001015 
z"/>
<path fill="#D467F4" opacity="1.000000" stroke="none" 
	d="
M109.311974,101.094566 
	C108.170700,97.054214 105.196716,95.940697 101.376839,95.984093 
	C95.720428,96.048340 90.039650,95.689842 84.413635,96.108246 
	C80.587883,96.392761 78.669472,95.074249 77.928528,91.117912 
	C78.629395,89.829041 79.368790,88.929855 80.796082,87.983078 
	C83.349899,87.397018 85.868553,85.810806 86.971069,86.497673 
	C92.332603,89.837959 97.148193,86.045395 102.177467,85.882645 
	C103.292877,85.846558 104.363663,84.431541 105.764084,83.750748 
	C109.506439,87.472359 112.939682,91.094658 116.194870,95.033585 
	C113.781868,97.264992 111.546921,99.179779 109.311974,101.094566 
z"/>
<path fill="#CD5DEE" opacity="1.000000" stroke="none" 
	d="
M66.650856,102.034698 
	C67.565735,102.772919 68.140762,104.411697 68.786095,104.439857 
	C76.292686,104.767441 83.854691,104.408783 91.308044,105.161850 
	C96.033463,105.639313 100.602318,106.194679 105.546539,105.332130 
	C104.911316,107.098999 103.972084,108.544136 102.861122,110.084915 
	C102.845825,110.421890 103.002258,110.663223 103.083145,110.943100 
	C103.007591,110.981628 103.144318,110.881104 103.016785,111.283508 
	C101.414101,112.123756 99.915001,113.005486 98.467690,112.927391 
	C89.096115,112.421715 79.740318,111.622520 70.368431,111.125183 
	C68.261467,111.013382 64.941170,109.570648 65.032127,113.972221 
	C65.032127,113.972221 64.681023,113.990105 64.506805,113.977753 
	C62.630287,112.508850 60.927975,111.052292 58.559845,109.026024 
	C61.399380,106.531174 63.871521,104.359123 66.650856,102.034698 
z"/>
<path fill="#A42DE2" opacity="1.000000" stroke="none" 
	d="
M161.081390,168.714142 
	C163.642731,171.205612 166.204071,173.697098 168.681671,176.803986 
	C164.044998,177.946274 159.490601,178.920090 154.939468,178.905045 
	C146.026535,178.875595 137.115433,178.294739 128.203568,177.942108 
	C126.691338,176.717606 125.179108,175.493088 123.377594,174.121033 
	C121.579239,172.172302 120.070168,170.371094 118.571426,168.024124 
	C118.694687,167.317825 118.807632,167.157318 119.266907,167.041809 
	C121.192436,168.499146 122.654152,170.083618 124.389198,171.267548 
	C125.700195,172.162170 127.341370,172.976715 128.870285,173.044495 
	C130.723022,173.126648 132.607132,172.085236 134.486664,172.052887 
	C141.955811,171.924438 149.429016,171.948761 156.899506,172.028748 
	C159.322495,172.054688 161.289398,171.848083 161.081390,168.714142 
z"/>
<path fill="#A129E1" opacity="1.000000" stroke="none" 
	d="
M128.351776,178.227936 
	C137.115433,178.294739 146.026535,178.875595 154.939468,178.905045 
	C159.490601,178.920090 164.044998,177.946274 168.862854,177.091202 
	C171.560013,179.036926 173.992233,181.310852 176.746735,183.596619 
	C177.069016,183.608475 177.036575,183.796143 176.743256,184.206253 
	C162.635559,184.730072 148.821198,184.843781 135.006821,184.957489 
	C132.837860,182.809586 130.668915,180.661667 128.351776,178.227936 
z"/>
<path fill="#F5FDFA" opacity="1.000000" stroke="none" 
	d="
M102.065155,34.631153 
	C101.243217,34.381943 100.473236,33.803516 99.125999,32.788204 
	C96.752434,32.219788 94.956650,31.982622 93.159721,31.973730 
	C80.769180,31.912416 68.378403,31.898748 55.987701,31.869762 
	C55.998631,27.330746 58.046799,25.713972 62.751610,25.887573 
	C72.829712,26.259441 82.936577,25.814522 93.019569,26.112793 
	C96.175850,26.206158 100.705109,25.040653 101.253418,30.668671 
	C101.300125,31.148048 103.300377,31.437099 105.115303,32.064041 
	C104.009804,32.889198 103.063454,33.595566 102.065155,34.631153 
z"/>
<path fill="#B64FEB" opacity="1.000000" stroke="none" 
	d="
M80.732849,130.436523 
	C86.098381,126.527000 90.014900,132.616501 94.964500,132.520630 
	C95.917526,132.502167 96.877197,132.826981 98.244324,133.064865 
	C98.384895,131.701752 98.503830,130.548477 98.667740,128.959061 
	C104.525810,133.051056 108.661774,129.944611 112.903267,126.505432 
	C112.742828,127.549942 112.412216,128.324844 111.862747,128.885071 
	C106.589859,134.261093 101.280022,139.600876 95.731384,144.939575 
	C95.481979,144.928101 94.985054,144.981842 94.985054,144.981842 
	C91.947578,142.045105 88.910095,139.108353 85.583694,136.029633 
	C83.824188,134.172943 82.353600,132.458252 80.732849,130.436523 
M86.483040,133.588150 
	C86.483040,133.588150 86.413574,133.473129 86.483040,133.588150 
M84.411530,131.481949 
	C84.411530,131.481949 84.526520,131.412430 84.411530,131.481949 
z"/>
<path fill="#DA71F4" opacity="1.000000" stroke="none" 
	d="
M105.454987,83.651436 
	C104.363663,84.431541 103.292877,85.846558 102.177467,85.882645 
	C97.148193,86.045395 92.332603,89.837959 86.971069,86.497673 
	C85.868553,85.810806 83.349899,87.397018 81.079895,87.895515 
	C85.265762,83.030182 89.855713,78.204842 94.957230,73.259789 
	C95.468796,73.140083 95.912155,73.269318 96.047485,73.554176 
	C98.181641,76.038681 100.180458,78.238327 102.148270,80.838791 
	C103.170570,82.075096 104.223885,82.910583 105.316628,83.712997 
	C105.356064,83.679924 105.454987,83.651436 105.454987,83.651436 
z"/>
<path fill="#F9F6FB" opacity="1.000000" stroke="none" 
	d="
M154.089539,85.925720 
	C149.120331,81.933640 144.363113,77.639786 139.279419,72.965355 
	C138.952942,72.584785 138.875900,72.102440 139.043427,71.804977 
	C141.876724,68.712540 144.542480,65.917564 147.208252,63.122589 
	C150.298660,60.200912 153.389069,57.279236 156.806763,54.288826 
	C158.508881,56.746895 161.747467,59.744263 155.093674,59.604397 
	C153.882019,59.578926 152.578796,62.686497 151.363876,64.380775 
	C150.114349,66.123360 148.921127,67.906326 148.539093,68.460083 
	C149.214691,72.260506 149.190933,75.302696 150.363480,77.778259 
	C151.415100,79.998573 153.782761,81.595535 156.156647,84.082184 
	C156.150864,84.086998 155.226196,84.855461 154.089539,85.925720 
z"/>
<path fill="#F5FDFA" opacity="1.000000" stroke="none" 
	d="
M121.816040,44.957634 
	C120.792450,46.628036 119.439331,48.166718 117.591537,49.967449 
	C116.678635,50.159649 116.260399,50.089798 115.842155,50.019943 
	C111.644470,45.552105 107.446777,41.084267 103.142944,36.298286 
	C105.269638,35.748394 108.312958,34.498577 109.566696,35.496685 
	C112.182449,37.579090 113.852669,40.849213 115.911354,43.631371 
	C115.516792,44.029552 115.122238,44.427731 114.727676,44.825912 
	C116.980614,44.825912 119.233559,44.825912 121.816040,44.957634 
z"/>
<path fill="#F9F6FB" opacity="1.000000" stroke="none" 
	d="
M159.370422,94.965775 
	C159.103287,94.537682 159.051483,94.135918 158.978058,93.430885 
	C159.887314,92.100601 160.818192,91.073586 161.749069,90.046562 
	C162.833389,91.573463 163.917725,93.100357 165.481384,95.302223 
	C165.756104,95.253975 167.109131,95.016342 168.462143,94.778709 
	C168.257416,95.100914 168.052673,95.423119 167.847946,95.745323 
	C169.386719,96.857178 170.786850,98.297997 172.491440,99.016418 
	C176.826859,100.843636 174.290421,104.491394 174.935791,107.723862 
	C170.871597,104.415031 166.840378,100.650803 162.343201,96.541229 
	C161.250504,95.840767 160.623718,95.485634 159.996948,95.130501 
	C159.996948,95.130501 159.585754,94.992111 159.370422,94.965775 
z"/>
<path fill="#F7FBF9" opacity="1.000000" stroke="none" 
	d="
M56.822609,33.273941 
	C59.851467,36.614979 62.880322,39.956017 66.056870,43.608067 
	C63.463959,43.676521 60.140514,45.303852 58.627544,41.123268 
	C58.406925,40.513660 55.765713,40.780079 53.607231,40.582932 
	C52.244457,37.789585 50.294956,34.671196 49.322437,31.273186 
	C49.025043,30.234083 51.410358,28.427181 52.567120,26.971897 
	C52.960228,27.191683 53.353340,27.411470 53.746452,27.631256 
	C53.289238,28.864313 52.534508,30.090219 52.504620,31.333549 
	C52.490402,31.924866 53.857136,32.549377 55.187111,33.073742 
	C56.124821,33.083736 56.473717,33.178837 56.822609,33.273941 
z"/>
<path fill="#37C0F3" opacity="1.000000" stroke="none" 
	d="
M95.912155,73.269318 
	C95.912155,73.269318 95.468796,73.140083 95.242516,73.095047 
	C90.627785,68.361534 86.239326,63.673061 81.766113,58.667557 
	C82.790207,58.418446 84.237000,58.059486 84.951721,58.625282 
	C88.861702,61.720524 92.591919,65.042831 96.333397,68.243881 
	C99.056084,66.102615 101.653557,64.059822 104.615288,62.373055 
	C102.638420,65.471886 100.297310,68.214684 97.618073,71.021660 
	C96.824013,71.813660 96.368088,72.541489 95.912155,73.269318 
z"/>
<path fill="#F9F6FB" opacity="1.000000" stroke="none" 
	d="
M167.377594,120.990860 
	C166.400482,120.770180 165.814133,120.539337 165.215347,119.720383 
	C167.131851,117.002510 169.060791,114.872757 170.989746,112.743004 
	C172.100937,111.870239 173.212128,110.997475 174.615051,110.021500 
	C174.906799,112.576576 174.906799,115.234856 174.906799,118.016960 
	C172.481476,119.023911 170.124924,120.002312 167.377594,120.990860 
z"/>
<path fill="#8E60BB" opacity="1.000000" stroke="none" 
	d="
M135.284576,185.279129 
	C148.821198,184.843781 162.635559,184.730072 176.728119,184.300278 
	C177.531006,184.287720 178.055725,184.591248 179.800903,185.600754 
	C164.160522,185.600754 149.861420,185.600754 135.284576,185.279129 
z"/>
<path fill="#65C2D3" opacity="1.000000" stroke="none" 
	d="
M57.295425,33.174545 
	C56.473717,33.178837 56.124821,33.083736 55.509560,32.951302 
	C55.293137,32.613003 55.437901,32.368027 55.832588,32.024403 
	C68.378403,31.898748 80.769180,31.912416 93.159721,31.973730 
	C94.956650,31.982622 96.752434,32.219788 98.862961,32.655155 
	C85.374199,32.997711 71.571220,33.036427 57.295425,33.174545 
z"/>
<path fill="#D59AD1" opacity="1.000000" stroke="none" 
	d="
M177.500763,33.187210 
	C163.771851,33.206264 150.329330,33.099064 136.414398,32.969116 
	C136.332870,32.665440 136.722549,32.140785 137.114777,32.138874 
	C150.597290,32.073143 164.080032,32.056194 177.562759,32.043259 
	C177.692810,32.043133 177.933884,32.191540 177.933014,32.268452 
	C177.930023,32.533134 177.842484,32.796864 177.500763,33.187210 
z"/>
<path fill="#37C0F3" opacity="1.000000" stroke="none" 
	d="
M75.912895,53.432060 
	C76.730904,52.398209 77.711472,51.660778 78.941216,50.735954 
	C79.965462,53.272194 80.836967,55.430241 81.745239,57.947266 
	C79.879814,56.780315 77.977631,55.254398 75.912895,53.432060 
z"/>
<path fill="#30D1FA" opacity="1.000000" stroke="none" 
	d="
M71.199203,48.266945 
	C71.735901,48.361824 72.313278,48.720142 72.943756,49.347237 
	C72.411194,49.254135 71.825546,48.892258 71.199203,48.266945 
z"/>
<path fill="#F9F6FB" opacity="1.000000" stroke="none" 
	d="
M175.076050,109.877266 
	C174.891739,109.923233 174.871262,109.443703 174.965454,109.223038 
	C175.210678,109.186142 175.374573,109.361961 175.498505,109.562485 
	C175.516647,109.591812 175.344498,109.738762 175.076050,109.877266 
z"/>
<path fill="#2ACAFC" opacity="1.000000" stroke="none" 
	d="
M115.538849,50.067295 
	C116.260399,50.089798 116.678635,50.159649 117.409698,50.263809 
	C117.722527,50.298126 117.575691,50.688648 117.195374,50.914940 
	C115.897369,51.448547 114.979698,51.755863 114.062019,52.063179 
	C114.062019,52.063175 114.028862,52.029388 114.012260,52.012405 
	C114.408951,51.368492 114.822243,50.741566 115.538849,50.067295 
z"/>
<path fill="#1E84F8" opacity="1.000000" stroke="none" 
	d="
M95.980782,144.951065 
	C101.280022,139.600876 106.589859,134.261093 111.862747,128.885071 
	C112.412216,128.324844 112.742828,127.549942 113.274239,126.536240 
	C113.373489,126.197830 113.713768,126.079971 114.143097,125.891739 
	C115.394310,125.141815 116.216179,124.580124 117.312805,124.138565 
	C118.395638,124.836853 119.203712,125.415016 120.143631,126.302948 
	C126.555359,132.757675 132.835251,138.902618 139.115128,145.047577 
	C139.115128,145.047577 139.128357,145.471603 138.840881,145.839859 
	C133.937744,151.101822 129.322098,155.995514 124.383362,160.963013 
	C122.347046,163.023468 120.633812,165.010147 118.920578,166.996826 
	C118.807632,167.157318 118.694687,167.317825 118.391754,167.706451 
	C117.937294,167.787506 117.692825,167.609863 117.026596,167.114059 
	C115.715233,165.211670 114.845627,163.596878 113.768967,161.721924 
	C112.373596,160.975891 111.185272,160.490005 109.993515,159.630005 
	C108.327248,157.836426 106.664421,156.416992 104.947823,154.654266 
	C101.922966,151.191010 98.951874,148.071045 95.980782,144.951065 
z"/>
<path fill="#1B8BF7" opacity="1.000000" stroke="none" 
	d="
M113.976013,161.982071 
	C114.845627,163.596878 115.715233,165.211670 116.910400,167.003693 
	C113.232292,170.932983 109.257576,174.716660 105.212212,178.423233 
	C103.312462,180.163864 101.276680,181.756012 98.791046,183.908142 
	C85.432938,184.400848 72.586334,184.400848 59.734921,184.400848 
	C59.652283,183.544403 59.560143,182.589462 59.468002,181.634537 
	C59.468002,181.634537 59.549850,181.646423 59.892036,181.618607 
	C60.479507,181.042694 60.724792,180.494614 60.970078,179.946518 
	C60.970078,179.946518 60.996204,180.001144 61.343884,179.997864 
	C62.455643,178.984924 63.219723,177.975250 63.983807,176.965591 
	C63.983810,176.965591 63.998146,177.004318 64.230293,176.949890 
	C64.675148,176.638535 64.887856,176.381592 65.100555,176.124649 
	C67.314232,173.955002 69.527901,171.785339 72.274094,169.292191 
	C75.978912,169.319031 76.140175,167.274033 75.983078,164.975769 
	C75.983078,164.975769 76.000946,165.000275 76.229294,164.911041 
	C76.636261,164.541031 76.814880,164.260269 76.993500,163.979507 
	C76.993507,163.979507 77.000320,164.001221 77.368652,164.006699 
	C78.493347,163.999390 79.249725,163.986603 79.887009,164.269958 
	C80.147057,165.225677 80.531685,166.462433 80.904495,166.458878 
	C87.237312,166.398499 93.769592,165.135590 99.843727,166.299438 
	C105.893501,167.458603 109.810760,165.165787 113.976013,161.982071 
z"/>
<path fill="#1F93F8" opacity="1.000000" stroke="none" 
	d="
M113.768967,161.721924 
	C109.810760,165.165787 105.893501,167.458603 99.843727,166.299438 
	C93.769592,165.135590 87.237312,166.398499 80.904495,166.458878 
	C80.531685,166.462433 80.147057,165.225677 80.157761,164.047577 
	C81.698425,161.349625 82.849266,159.170166 84.000099,156.990723 
	C84.000099,156.990723 84.000992,157.000610 84.373367,157.005249 
	C88.639389,156.888809 89.374077,153.994995 90.008926,151.013550 
	C91.625229,149.221222 93.241531,147.428894 94.921448,145.309204 
	C94.985054,144.981842 95.481979,144.928101 95.731384,144.939575 
	C98.951874,148.071045 101.922966,151.191010 104.980827,154.998749 
	C106.710716,157.125717 108.353828,158.564911 109.996948,160.004120 
	C111.185272,160.490005 112.373596,160.975891 113.768967,161.721924 
z"/>
<path fill="#5491D5" opacity="1.000000" stroke="none" 
	d="
M59.165600,181.724457 
	C59.560143,182.589462 59.652283,183.544403 59.734921,184.400848 
	C72.586334,184.400848 85.432938,184.400848 98.656784,184.217041 
	C98.266884,184.679062 97.504425,185.881470 96.731895,185.887985 
	C83.161194,186.002396 69.589256,185.970703 56.017593,185.970703 
	C55.496765,185.320145 54.975937,184.669586 54.455105,184.019028 
	C55.924469,183.284149 57.393829,182.549271 59.165600,181.724457 
z"/>
<path fill="#3E96DF" opacity="1.000000" stroke="none" 
	d="
M83.693932,157.119781 
	C82.849266,159.170166 81.698425,161.349625 80.276840,163.751434 
	C79.249725,163.986603 78.493347,163.999390 77.358856,164.000687 
	C79.116409,161.742416 81.252090,159.495636 83.693932,157.119781 
z"/>
<path fill="#3E96DF" opacity="1.000000" stroke="none" 
	d="
M89.705276,151.141022 
	C89.374077,153.994995 88.639389,156.888809 84.368484,157.005249 
	C85.794693,155.089874 87.598167,153.179184 89.705276,151.141022 
z"/>
<path fill="#3E96DF" opacity="1.000000" stroke="none" 
	d="
M75.682190,165.098663 
	C76.140175,167.274033 75.978912,169.319031 72.411217,168.990692 
	C73.137642,167.748962 74.259476,166.485260 75.682190,165.098663 
z"/>
<path fill="#5491D5" opacity="1.000000" stroke="none" 
	d="
M63.683266,177.058167 
	C63.219723,177.975250 62.455643,178.984924 61.318634,179.981140 
	C61.758049,179.028687 62.570393,178.089722 63.683266,177.058167 
z"/>
<path fill="#5491D5" opacity="1.000000" stroke="none" 
	d="
M60.692417,180.031219 
	C60.724792,180.494614 60.479507,181.042694 59.910995,181.581848 
	C59.863430,181.087250 60.139091,180.601578 60.692417,180.031219 
z"/>
<path fill="#3E96DF" opacity="1.000000" stroke="none" 
	d="
M76.738571,164.043549 
	C76.814880,164.260269 76.636261,164.541031 76.215454,164.905014 
	C76.143394,164.694687 76.313522,164.401138 76.738571,164.043549 
z"/>
<path fill="#5491D5" opacity="1.000000" stroke="none" 
	d="
M64.835587,176.142136 
	C64.887856,176.381592 64.675148,176.638535 64.211761,176.940735 
	C64.164253,176.710556 64.367432,176.435089 64.835587,176.142136 
z"/>
<path fill="#25A6FA" opacity="1.000000" stroke="none" 
	d="
M114.003067,52.424065 
	C114.979698,51.755863 115.897369,51.448547 117.090202,51.095100 
	C118.392235,51.929085 119.419106,52.809204 120.779053,54.151493 
	C121.762451,55.005409 122.412781,55.397156 123.063110,55.788902 
	C123.257904,56.108677 123.452690,56.428455 124.018997,57.149277 
	C125.912537,59.375076 127.434563,61.199841 128.727875,63.222290 
	C129.335220,63.945457 130.171310,64.470932 131.252502,65.087692 
	C131.656708,65.477654 131.815811,65.776337 131.981522,66.472427 
	C132.127411,70.771576 129.260803,71.407822 126.619415,70.898842 
	C119.086021,69.447227 111.748550,74.316925 104.222626,71.372307 
	C103.787338,71.201996 103.014999,72.063812 102.463699,71.986671 
	C100.942970,71.773865 99.456322,71.317520 97.956200,70.957489 
	C100.297310,68.214684 102.638420,65.471886 104.984695,62.369171 
	C107.974602,58.934490 110.959351,55.859718 114.003067,52.424065 
z"/>
<path fill="#E17AFA" opacity="1.000000" stroke="none" 
	d="
M128.956589,63.024605 
	C127.434563,61.199841 125.912537,59.375076 124.294327,57.242115 
	C125.503403,56.288155 126.808662,55.642399 126.957382,55.568825 
	C134.659592,56.664257 141.632721,57.656002 148.714798,58.663239 
	C147.944107,60.223942 147.314545,61.498859 146.946625,62.948181 
	C144.542480,65.917564 141.876724,68.712540 138.738831,71.673981 
	C136.169418,69.918633 134.072159,67.996826 131.974915,66.075012 
	C131.815811,65.776337 131.656708,65.477654 131.162476,64.802872 
	C130.203735,63.959385 129.580170,63.491997 128.956589,63.024605 
z"/>
<path fill="#E17AFA" opacity="1.000000" stroke="none" 
	d="
M122.996376,55.493149 
	C122.412781,55.397156 121.762451,55.005409 121.070702,54.307381 
	C121.662735,54.399864 122.296188,54.798630 122.996376,55.493149 
z"/>
<path fill="#23A8F8" opacity="1.000000" stroke="none" 
	d="
M120.011787,125.993187 
	C119.203712,125.415016 118.395638,124.836853 117.279556,123.927414 
	C116.971558,123.596130 116.919128,123.172241 117.239120,123.039581 
	C122.052544,118.601768 126.545967,114.296616 131.039383,109.991455 
	C131.407150,109.662468 131.934723,108.973824 132.119781,109.056053 
	C141.694611,113.310402 151.580261,110.388260 161.333282,110.387215 
	C164.589340,110.386864 168.216751,108.325401 170.921738,112.374313 
	C169.060791,114.872757 167.131851,117.002510 165.054504,119.437958 
	C161.223526,123.109741 157.540970,126.475838 153.281097,130.050827 
	C152.516342,130.577576 152.328903,130.895447 152.141464,131.213303 
	C152.141464,131.213303 152.168625,131.272644 151.860992,131.074951 
	C150.898788,130.379227 150.309982,129.598770 149.579041,129.428482 
	C144.416626,128.225922 139.270111,126.772675 134.029205,126.144379 
	C129.416992,125.591438 124.688774,126.005928 120.011787,125.993187 
z"/>
<path fill="#F6F5FA" opacity="1.000000" stroke="none" 
	d="
M131.019745,109.641319 
	C126.545967,114.296616 122.052544,118.601768 116.976280,122.836655 
	C115.283119,122.089111 114.172806,121.411842 113.062485,120.734566 
	C111.981651,119.541084 110.900818,118.347603 109.385300,116.724815 
	C107.015190,114.490700 105.079758,112.685898 103.144318,110.881104 
	C103.144318,110.881104 103.007591,110.981628 103.082123,110.710251 
	C103.156654,110.438881 103.032852,109.989273 103.032852,109.989273 
	C103.972084,108.544136 104.911316,107.098999 105.913971,105.327530 
	C106.977806,103.886826 107.978210,102.772453 109.145294,101.376328 
	C111.546921,99.179779 113.781868,97.264992 116.478912,95.104294 
	C117.617737,95.261749 118.294487,95.665123 118.971230,96.068497 
	C120.465828,97.597702 121.960419,99.126900 123.724991,100.831635 
	C126.330009,103.768501 128.665054,106.529839 131.019745,109.641319 
z"/>
<path fill="#29B7FA" opacity="1.000000" stroke="none" 
	d="
M160.003464,95.464661 
	C160.623718,95.485634 161.250504,95.840767 162.010620,96.445633 
	C161.432648,96.396530 160.721313,96.097679 160.003464,95.464661 
z"/>
<path fill="#229BF9" opacity="1.000000" stroke="none" 
	d="
M119.079872,95.788147 
	C118.294487,95.665123 117.617737,95.261749 116.656960,94.787666 
	C112.939682,91.094658 109.506439,87.472359 105.764084,83.750748 
	C105.454987,83.651436 105.356064,83.679924 105.278717,83.374527 
	C104.194000,82.192078 103.186638,81.315025 102.179276,80.437973 
	C100.180458,78.238327 98.181641,76.038681 96.047485,73.554176 
	C96.368088,72.541489 96.824013,71.813660 97.618073,71.021660 
	C99.456322,71.317520 100.942970,71.773865 102.463699,71.986671 
	C103.014999,72.063812 103.787338,71.201996 104.222626,71.372307 
	C111.748550,74.316925 119.086021,69.447227 126.619415,70.898842 
	C129.260803,71.407822 132.127411,70.771576 131.981522,66.472427 
	C134.072159,67.996826 136.169418,69.918633 138.571289,71.971436 
	C138.875900,72.102440 138.952942,72.584785 138.980865,72.827820 
	C133.257599,78.499817 127.375946,83.800888 121.843872,89.444626 
	C120.399834,90.917824 120.044090,93.457779 119.079872,95.788147 
M133.796906,71.388634 
	C133.792877,71.784401 133.788834,72.180161 133.784805,72.575920 
	C133.949036,72.577545 134.256058,72.590088 134.256882,72.579224 
	C134.287033,72.185364 134.288605,71.789314 133.796906,71.388634 
z"/>
<path fill="#C855EE" opacity="1.000000" stroke="none" 
	d="
M103.016785,111.283508 
	C105.079758,112.685898 107.015190,114.490700 109.109940,116.594017 
	C108.013763,117.172829 105.789162,117.219490 105.656334,117.770439 
	C104.607780,122.119843 101.267189,120.896362 98.517235,120.981468 
	C92.730835,121.160553 86.938904,121.168655 81.153481,121.369179 
	C74.650421,121.594566 72.902626,120.198448 72.009415,113.466690 
	C69.963036,113.640472 67.894630,113.816132 65.429176,113.982002 
	C64.941170,109.570648 68.261467,111.013382 70.368431,111.125183 
	C79.740318,111.622520 89.096115,112.421715 98.467690,112.927391 
	C99.915001,113.005486 101.414101,112.123756 103.016785,111.283508 
z"/>
<path fill="#B64FEB" opacity="1.000000" stroke="none" 
	d="
M113.161819,121.102356 
	C114.172806,121.411842 115.283119,122.089111 116.656281,122.969315 
	C116.919128,123.172241 116.971558,123.596130 117.004807,123.807281 
	C116.216179,124.580124 115.394310,125.141815 114.282654,125.777969 
	C113.748962,124.391663 113.505058,122.930901 113.161819,121.102356 
z"/>
<path fill="#C855EE" opacity="1.000000" stroke="none" 
	d="
M108.533333,120.551712 
	C108.476799,120.585670 108.589867,120.517754 108.533333,120.551712 
z"/>
<path fill="#AA34E6" opacity="1.000000" stroke="none" 
	d="
M119.266907,167.041809 
	C120.633812,165.010147 122.347046,163.023468 124.858681,160.997742 
	C131.098679,160.639282 136.558365,160.493393 141.974350,159.928482 
	C144.751038,159.638855 147.449600,158.600311 150.183472,157.900223 
	C153.718567,161.313660 157.253662,164.727112 160.935074,168.427338 
	C161.289398,171.848083 159.322495,172.054688 156.899506,172.028748 
	C149.429016,171.948761 141.955811,171.924438 134.486664,172.052887 
	C132.607132,172.085236 130.723022,173.126648 128.870285,173.044495 
	C127.341370,172.976715 125.700195,172.162170 124.389198,171.267548 
	C122.654152,170.083618 121.192436,168.499146 119.266907,167.041809 
z"/>
<path fill="#239FF7" opacity="1.000000" stroke="none" 
	d="
M120.143631,126.302948 
	C124.688774,126.005928 129.416992,125.591438 134.029205,126.144379 
	C139.270111,126.772675 144.416626,128.225922 149.579041,129.428482 
	C150.309982,129.598770 150.898788,130.379227 151.849548,131.105515 
	C147.984299,135.775513 143.822876,140.217270 139.388290,144.853302 
	C132.835251,138.902618 126.555359,132.757675 120.143631,126.302948 
z"/>
<path fill="#AC3DE9" opacity="1.000000" stroke="none" 
	d="
M150.040009,157.592407 
	C147.449600,158.600311 144.751038,159.638855 141.974350,159.928482 
	C136.558365,160.493393 131.098679,160.639282 125.181763,160.923950 
	C129.322098,155.995514 133.937744,151.101822 138.864990,146.050598 
	C142.749893,149.690262 146.323227,153.487427 150.040009,157.592407 
z"/>
<path fill="#239FF7" opacity="1.000000" stroke="none" 
	d="
M152.426193,131.159454 
	C152.328903,130.895447 152.516342,130.577576 152.976349,130.173981 
	C153.069580,130.427368 152.890244,130.766479 152.426193,131.159454 
z"/>
<path fill="#C855EE" opacity="1.000000" stroke="none" 
	d="
M102.861122,110.084915 
	C103.032852,109.989273 103.156654,110.438881 103.157669,110.671722 
	C103.002258,110.663223 102.845825,110.421890 102.861122,110.084915 
z"/>
<path fill="#C452EC" opacity="1.000000" stroke="none" 
	d="
M86.448303,133.530640 
	C86.413574,133.473129 86.483040,133.588150 86.448303,133.530640 
z"/>
<path fill="#C452EC" opacity="1.000000" stroke="none" 
	d="
M84.469025,131.447189 
	C84.526520,131.412430 84.411530,131.481949 84.469025,131.447189 
z"/>
<path fill="#D467F4" opacity="1.000000" stroke="none" 
	d="
M102.148270,80.838791 
	C103.186638,81.315025 104.194000,82.192078 105.239273,83.407600 
	C104.223885,82.910583 103.170570,82.075096 102.148270,80.838791 
z"/>
<path fill="#1B8BF7" opacity="1.000000" stroke="none" 
	d="
M109.993515,159.630005 
	C108.353828,158.564911 106.710716,157.125717 105.034592,155.342041 
	C106.664421,156.416992 108.327248,157.836426 109.993515,159.630005 
z"/>
<path fill="#229BF9" opacity="1.000000" stroke="none" 
	d="
M128.727875,63.222290 
	C129.580170,63.491997 130.203735,63.959385 130.917358,64.711594 
	C130.171310,64.470932 129.335220,63.945457 128.727875,63.222290 
z"/>
<path fill="#25A6FA" opacity="1.000000" stroke="none" 
	d="
M134.045532,71.391098 
	C134.288605,71.789314 134.287033,72.185364 134.256882,72.579224 
	C134.256058,72.590088 133.949036,72.577545 133.784805,72.575928 
	C133.788834,72.180161 133.792877,71.784401 134.045532,71.391098 
z"/>
</svg>